<svg xmlns="http://www.w3.org/2000/svg" viewBox="0 0 163.64 44.32"><defs><style>.cls-1,.cls-2{fill:#fff;}.cls-2{font-size:18px;font-family:OpenSans-Regular, Open Sans;}.cls-3{letter-spacing:0.13em;}</style></defs><title>Asset 1</title><g id="Layer_2" data-name="Layer 2"><g id="Layer_1-2" data-name="Layer 1"><path class="cls-1" d="M162.64,1V43.32H82.82V1h79.82m1-1H81.82V44.32h81.82V0Z"/><text class="cls-2" transform="translate(90.01 27.99)"><tspan class="cls-3">SHOE</tspan><tspan x="56.28" y="0">S</tspan></text><path class="cls-1" d="M49,17.65a17.51,17.51,0,0,1-.55,1.86l-1.51,4h4.15l-1.49-4Q49.3,18.74,49,17.65Z"/><path class="cls-1" d="M66.3,17.36H64.13V27.63H66a5.49,5.49,0,0,0,4-1.32,5.18,5.18,0,0,0,1.35-3.89,5.17,5.17,0,0,0-1.26-3.78A5.05,5.05,0,0,0,66.3,17.36Z"/><path class="cls-1" d="M0,0V44.32H81.82V0ZM18.12,27.24a6.83,6.83,0,0,1-5,1.68H9.59V16.07h3.94a6.29,6.29,0,0,1,4.66,1.66,6.27,6.27,0,0,1,1.66,4.64A6.48,6.48,0,0,1,18.12,27.24ZM36.05,17.4H30.38v4.14h5.33v1.32H30.38v4.72h5.67v1.34H28.89V16.07h7.16Zm17.1,11.52-1.6-4.09H46.4l-1.58,4.09H43.3L48.39,16h1.25l5.06,12.9Zm18-1.68a6.83,6.83,0,0,1-5,1.68H62.63V16.07h3.94a6.29,6.29,0,0,1,4.66,1.66,6.27,6.27,0,0,1,1.66,4.64A6.48,6.48,0,0,1,71.16,27.24Z"/><path class="cls-1" d="M13.26,17.36H11.09V27.63h1.82a5.49,5.49,0,0,0,4-1.32,5.18,5.18,0,0,0,1.35-3.89A5.17,5.17,0,0,0,17,18.64,5.05,5.05,0,0,0,13.26,17.36Z"/></g></g></svg>